<svg width="44" height="44" viewBox="0 0 44 44" fill="none" xmlns="http://www.w3.org/2000/svg">
<path d="M0.819885 9.88281H0V18.2188H16.1242C17.6273 18.2188 18.1739 19.5078 16.8074 19.9375L13.6646 20.8828C9.42858 22.1719 5.19256 22.8594 0.819885 22.8594H0V31.1953H15.7143C17.2174 31.1953 17.764 32.4844 16.3975 32.9141L13.118 33.8594C9.15529 35.0625 4.91927 35.6641 0.819885 35.6641H0V44H15.7143L17.4907 42.625C25.1429 37.0391 34.0248 34.1172 43.3168 34.1172H44V25.7812H28.2857C26.7826 25.7812 26.236 24.4922 27.6025 24.0625L30.882 23.1172C34.8447 21.9141 39.0808 21.3125 43.1802 21.3125H43.8634V12.9766H27.8758C26.3727 12.9766 25.8261 11.6875 27.1926 11.2578L30.3354 10.3125C34.5714 9.02344 38.8075 8.33595 43.1802 8.33595H43.8634V0H28.1491L26.3727 1.37501C18.9938 6.96094 9.97517 9.88281 0.819885 9.88281Z" fill="#64748B"/>
</svg>
