<svg width="44" height="44" viewBox="0 0 44 44" fill="none" xmlns="http://www.w3.org/2000/svg">
<path d="M28.1854 43.0581L36.6028 44L31.2463 30.0061L43.9999 31.3517L41.3854 24.4893C39.5999 19.7798 36.9216 16.9541 34.1158 16.685L25.6984 15.7431L31.055 29.737L18.3013 28.3914L20.9158 35.2538C22.7013 39.8287 25.3158 42.6544 28.1854 43.0581Z" fill="#64748B"/>
<path d="M9.88406 27.315L18.3014 28.2569L12.9449 14.263L25.6985 15.6085L23.0841 8.74617C21.2985 4.0367 18.6203 1.211 15.8145 0.941892L7.3971 0L12.7536 13.9939L0 12.6483L2.61449 19.5107C4.4 24.2202 7.07826 27.0459 9.88406 27.315Z" fill="#64748B"/>
</svg>
