<svg width="44" height="44" viewBox="0 0 44 44" fill="none" xmlns="http://www.w3.org/2000/svg">
<path d="M14.778 17.4497C20.5389 14.6945 25.0474 10.019 27.6357 4.17457C25.9659 2.42125 23.7951 1.16888 21.4573 0.417457L20.2049 0C20.1214 0.166983 20.038 0.417467 20.038 0.58445C18.0342 6.26187 13.9431 10.8539 8.43264 13.4421C4.59204 15.2789 1.75332 18.6186 0.417457 22.6262L0 23.8786C0.166983 23.962 0.417461 24.0455 0.584444 24.0455C2.17078 24.63 3.75712 25.3814 5.25996 26.2998C7.34725 22.5427 10.6869 19.37 14.778 17.4497Z" fill="#64748B"/>
<path d="M38.9905 17.7837C35.9013 22.4592 31.6433 26.2163 26.3833 28.721C22.1252 30.7248 18.8691 34.482 17.3662 38.9905L16.9488 40.4098C18.5351 41.8292 20.4554 42.9146 22.5427 43.5825L23.7951 44C23.8786 43.833 23.962 43.5825 23.962 43.4155C25.9658 37.7381 30.0569 33.1461 35.5674 30.5579C39.408 28.7211 42.3302 25.3814 43.5825 21.3738L44 20.1214C42.2467 19.6205 40.5768 18.7856 38.9905 17.7837Z" fill="#64748B"/>
<path d="M14.6755 35.4687C16.7628 30.4592 20.6034 26.3681 25.5294 24.0304C30.038 21.8596 33.7951 18.5199 36.3833 14.4289C34.463 12.592 32.8767 10.5047 31.7078 8C28.6186 13.6774 23.7761 18.2695 17.8482 21.1082C14.425 22.6945 11.6698 25.4497 10 28.7894C11.8368 30.5427 13.3397 32.7135 14.5085 35.1347C14.5085 35.1347 14.592 35.3017 14.6755 35.4687Z" fill="#64748B"/>
</svg>
